name C:\Users\antoi\Documents\MyRepositories\upper-imu-dc\Results\main_tracking\Case_81\kinematics.mot
datacolumns 10
datarows 47
range 4.83000000 5.29000000
endheader 
time	clav_prot	clav_elev	scapula_abduction	scapula_elevation	scapula_upward_rot	scapula_winging	plane_elv	shoulder_elv	axial_rot	
          4.83000000	        -39.76787188	        -29.99685046	        -46.43489246	        -22.47588044	         -1.53535413	         23.74234844	         85.51810692	         59.86652831	          4.26297266	
          4.84000000	        -39.78344181	        -29.99777295	        -46.64162388	        -22.38145573	         -1.89606540	         23.76406212	         85.09503818	         58.98696002	          4.53011325	
          4.85000000	        -39.80120211	        -29.99855369	        -46.84328478	        -22.29049299	         -2.24190889	         23.78342935	         84.65350882	         58.11944909	          4.80610943	
          4.86000000	        -39.82084119	        -29.99916622	        -47.03983630	        -22.20282559	         -2.57356888	         23.80060614	         84.19378841	         57.26472069	          5.09003841	
          4.87000000	        -39.84203540	        -29.99960002	        -47.23126645	        -22.11826313	         -2.89184982	         23.81577812	         83.71612016	         56.42345130	          5.38088203	
          4.88000000	        -39.86444892	        -29.99985409	        -47.41754031	        -22.03661240	         -3.19757687	         23.82914606	         83.22073361	         55.59624854	          5.67762030	
          4.89000000	        -39.88776400	        -29.99995419	        -47.59861046	        -21.95771828	         -3.49151017	         23.84092863	         82.70790436	         54.78362881	          5.97933993	
          4.90000000	        -39.91168999	        -29.99997438	        -47.77453939	        -21.88142594	         -3.77456063	         23.85139820	         82.17789419	         53.98604562	          6.28504751	
          4.91000000	        -39.93591338	        -29.99996335	        -47.94526848	        -21.80759127	         -4.04749385	         23.86079482	         81.63095706	         53.20382551	          6.59390185	
          4.92000000	        -39.96011697	        -29.99994937	        -48.11070452	        -21.73605708	         -4.31103971	         23.86933297	         81.06737754	         52.43721774	          6.90514275	
          4.93000000	        -39.98398235	        -29.99994607	        -48.27073272	        -21.66665449	         -4.56590834	         23.87720857	         80.48746724	         51.68641775	          7.21808030	
          4.94000000	        -40.00718485	        -29.99995614	        -48.42518815	        -21.59921887	         -4.81274530	         23.88460214	         79.89154594	         50.95155231	          7.53212746	
          4.95000000	        -40.02939386	        -29.99997590	        -48.57386099	        -21.53359273	         -5.05213823	         23.89168473	         79.27992789	         50.23267919	          7.84679274	
          4.96000000	        -40.05026713	        -29.99998502	        -48.71649282	        -21.46961283	         -5.28462916	         23.89860926	         78.65292124	         49.52980849	          8.16166677	
          4.97000000	        -40.06943918	        -29.99992440	        -48.85275750	        -21.40708859	         -5.51071753	         23.90549027	         78.01083610	         48.84293331	          8.47641217	
          4.98000000	        -40.08653585	        -29.99971122	        -48.98228936	        -21.34581530	         -5.73086550	         23.91241612	         77.35399062	         48.17202816	          8.79076292	
          4.99000000	        -40.10120694	        -29.99928601	        -49.10474592	        -21.28561751	         -5.94550582	         23.91949047	         76.68270210	         47.51701946	          9.10453208	
          5.00000000	        -40.11313206	        -29.99862276	        -49.21981930	        -21.22635885	         -6.15504217	         23.92684137	         75.99727310	         46.87778171	          9.41761613	
          5.01000000	        -40.12202009	        -29.99772420	        -49.32723268	        -21.16793960	         -6.35984287	         23.93461536	         75.29798507	         46.25413889	          9.73000209	
          5.02000000	        -40.12761229	        -29.99661741	        -49.42674216	        -21.11029519	         -6.56023294	         23.94297071	         74.58509770	         45.64586060	         10.04177790	
          5.03000000	        -40.12968824	        -29.99534936	        -49.51814339	        -21.05339448	         -6.75648709	         23.95206953	         73.85885350	         45.05265481	         10.35314386	
          5.04000000	        -40.12807379	        -29.99398117	        -49.60128130	        -20.99723714	         -6.94882204	         23.96206789	         73.11948930	         44.47415764	         10.66442731	
          5.05000000	        -40.12264986	        -29.99258072	        -49.67605904	        -20.94185057	         -7.13738464	         23.97310344	         72.36725496	         43.90992054	         10.97610324	
          5.06000000	        -40.11336083	        -29.99121385	        -49.74244407	        -20.88728702	         -7.32223506	         23.98528156	         71.60243747	         43.35939562	         11.28882133	
          5.07000000	        -40.10022194	        -29.98993580	        -49.80047200	        -20.83362125	         -7.50332871	         23.99866227	         70.82538495	         42.82192140	         11.60343463	
          5.08000000	        -40.08332525	        -29.98878492	        -49.85025112	        -20.78094867	         -7.68050362	         24.01325059	         70.03652436	         42.29671239	         11.92102166	
          5.09000000	        -40.06284455	        -29.98778037	        -49.89197099	        -20.72938366	         -7.85348029	         24.02899274	         69.23636683	         41.78285574	         12.24289337	
          5.10000000	        -40.03903920	        -29.98692468	        -49.92591708	        -20.67905766	         -8.02187787	         24.04577902	         68.42549809	         41.27931658	         12.57057985	
          5.11000000	        -40.01225711	        -29.98621060	        -49.95249104	        -20.63011670	         -8.18524585	         24.06345263	         67.60455643	         40.78495215	         12.90579706	
          5.12000000	        -39.98293671	        -29.98563121	        -49.97223381	        -20.58271883	         -8.34310635	         24.08182310	         66.77420331	         40.29853241	         13.25039916	
          5.13000000	        -39.95160774	        -29.98519167	        -49.98584846	        -20.53703182	         -8.49500006	         24.10068189	         65.93509489	         39.81876438	         13.60632536	
          5.14000000	        -39.91889122	        -29.98492046	        -49.99421999	        -20.49323104	         -8.64052987	         24.11981761	         65.08786223	         39.34431810	         13.97554865	
          5.15000000	        -39.88550166	        -29.98488382	        -49.99844119	        -20.45149872	         -8.77940970	         24.13903400	         64.23309674	         38.87385524	         14.36002219	
          5.16000000	        -39.85225629	        -29.98520328	        -49.99985636	        -20.41202211	         -8.91152810	         24.15816933	         63.37134274	         38.40606237	         14.76162040	
          5.17000000	        -39.82004255	        -29.98604386	        -49.99999295	        -20.37498937	         -9.03691901	         24.17709358	         62.50307821	         37.93968544	         15.18209508	
          5.18000000	        -39.78955940	        -29.98746841	        -49.99998188	        -20.34053498	         -9.15544412	         24.19562488	         61.62854402	         37.47366524	         15.62289803	
          5.19000000	        -39.76104627	        -29.98925715	        -49.99998229	        -20.30863275	         -9.26654145	         24.21341495	         60.74763653	         37.00732057	         16.08493715	
          5.20000000	        -39.73462843	        -29.99118132	        -49.99998275	        -20.27923078	         -9.36969248	         24.23015032	         59.86006738	         36.54019105	         16.56875971	
          5.21000000	        -39.71039177	        -29.99306135	        -49.99998275	        -20.25227314	         -9.46454535	         24.24559513	         58.96540281	         36.07201896	         17.07455008	
          5.22000000	        -39.68837664	        -29.99476853	        -49.99998304	        -20.22769995	         -9.55091798	         24.25959461	         58.06305504	         35.60275631	         17.60211104	
          5.23000000	        -39.66858284	        -29.99622680	        -49.99998357	        -20.20545603	         -9.62877505	         24.27207364	         57.15231029	         35.13254845	         18.15090746	
          5.24000000	        -39.65097237	        -29.99740425	        -49.99997901	        -20.18548789	         -9.69821042	         24.28302493	         56.23236526	         34.66173146	         18.72009295	
          5.25000000	        -39.63547952	        -29.99830688	        -49.99997798	        -20.16773555	         -9.75945614	         24.29249865	         55.30234919	         34.19083653	         19.30851571	
          5.26000000	        -39.62201369	        -29.99896503	        -49.99997839	        -20.15213901	         -9.81281700	         24.30058307	         54.36136935	         33.72054545	         19.91482322	
          5.27000000	        -39.61047482	        -29.99942960	        -49.99998987	        -20.13863723	         -9.85866392	         24.30739447	         53.40851742	         33.25166431	         20.53750497	
          5.28000000	        -39.60072719	        -29.99974047	        -49.99994535	        -20.12716643	         -9.89733477	         24.31304694	         52.44288897	         32.78508749	         21.17497760	
          5.29000000	        -39.59260197	        -29.99991418	        -49.99971723	        -20.11763921	         -9.92916639	         24.31763946	         51.46357468	         32.32182397	         21.82553556	
